<?xml version="1.0" encoding="utf-8"?>
<!-- Svg Vector Icons : http://www.onlinewebfonts.com/icon -->
<!DOCTYPE svg PUBLIC "-//W3C//DTD SVG 1.1//EN" "http://www.w3.org/Graphics/SVG/1.1/DTD/svg11.dtd">
<svg version="1.1" xmlns="http://www.w3.org/2000/svg" xmlns:xlink="http://www.w3.org/1999/xlink" x="0px" y="0px" viewBox="0 0 256 256" enable-background="new 0 0 256 256" xml:space="preserve">
<metadata> Svg Vector Icons : http://www.onlinewebfonts.com/icon </metadata>
<g> <path fill="#16a34a" d="M244.6,45l-31.2-24.6c-1-0.8-2.2-1.4-3.5-1.4c-1.4,0-2.6,0.6-3.6,1.4L93.1,166c0,0-44.5-42.8-45.8-44.1 s-2.9-3.3-5.4-3.3s-3.6,1.8-4.9,3.1c-1,1-16.9,17.7-24.7,26c-0.5,0.5-0.7,0.8-1.1,1.2c-0.7,1-1.1,2-1.1,3.2c0,1.2,0.5,2.3,1.1,3.2 l1.6,1.5c0,0,79,75.9,80.3,77.2c1.3,1.3,2.9,3,5.2,3c2.3,0,4.1-2.4,5.2-3.5L244.9,51.9c0.7-1,1.1-2,1.1-3.3 C246,47.2,245.4,46,244.6,45z"/></g>
</svg>